<svg version="1.1" id="Layer_1" xmlns="http://www.w3.org/2000/svg" xmlns:xlink="http://www.w3.org/1999/xlink" x="0px" y="0px"
	 width="100%" viewBox="0 0 736 880" enable-background="new 0 0 736 880" xml:space="preserve">
<path fill="#000000" opacity="1.000000" stroke="none" 
	d="
M690.015747,441.189117 
	C685.116760,445.772919 686.383789,452.425446 692.274902,453.947876 
	C695.793457,454.857178 699.488770,455.116852 703.118958,455.547180 
	C705.147522,455.787628 707.376770,455.725067 707.646973,458.407806 
	C707.886536,460.786621 706.116150,462.017059 704.226013,462.823242 
	C700.856628,464.260345 697.370422,465.426605 694.018860,466.901215 
	C691.470276,468.022552 688.769165,469.029419 688.376831,472.540222 
	C687.960022,476.269989 690.346680,477.945099 692.963989,479.541260 
	C697.097839,482.062317 701.411255,484.220215 706.005005,485.787323 
	C711.749756,487.747070 711.909180,488.133881 709.435486,493.910400 
	C709.042725,494.827576 708.630188,495.759888 709.333313,497.095490 
	C712.239929,498.428741 715.720825,496.938385 718.829956,498.005707 
	C720.619141,498.619934 723.179932,498.748901 723.318665,501.296570 
	C723.471924,504.110931 721.040771,504.684235 718.908997,505.161987 
	C715.124695,506.010162 711.695740,507.710327 708.248108,509.381226 
	C703.579956,511.643707 698.903137,513.533936 693.487122,513.431824 
	C688.846802,513.344360 685.902466,515.449402 685.203125,520.761169 
	C680.811279,554.118774 670.045898,585.501526 655.194397,615.568237 
	C653.287109,619.429504 653.233643,619.403076 653.861023,623.031372 
	C655.959290,623.711365 657.151733,621.846313 658.783691,621.232544 
	C660.772400,620.484680 662.719360,620.310486 664.407837,621.825928 
	C666.200989,623.435364 665.833130,625.403748 665.040588,627.353271 
	C664.790710,627.967957 664.493530,628.580322 664.117493,629.124207 
	C661.236511,633.290222 659.187622,637.220337 661.799500,642.723145 
	C663.495239,646.295837 661.455139,650.543396 660.492126,654.420837 
	C658.767334,661.365417 660.262634,662.951843 667.343628,661.380432 
	C669.832336,660.828186 672.274231,660.383057 674.742798,660.929565 
	C679.007324,661.873657 680.026306,664.680908 677.526306,668.212585 
	C672.449829,675.383972 665.232849,678.197083 656.659302,676.346497 
	C649.844543,674.875610 649.844482,674.875610 647.942261,681.401123 
	C646.672058,685.758118 645.432678,686.358276 638.555786,685.942749 
	C637.763000,686.659241 638.233826,687.507568 638.401184,688.260193 
	C638.848694,690.272522 639.328918,692.346924 637.150513,693.610474 
	C635.267395,694.702759 633.530334,693.668457 632.114258,692.491821 
	C629.439087,690.268738 625.719238,690.011902 623.233521,687.230652 
	C621.721558,685.538940 619.704285,686.330872 619.395142,688.861694 
	C619.154602,690.831116 619.402466,692.854919 619.291077,694.846558 
	C619.077271,698.669800 616.515930,700.138794 613.212097,698.365295 
	C612.189941,697.816711 611.213440,697.168091 610.269836,696.490417 
	C602.823242,691.143250 602.710999,691.006042 595.666931,697.232910 
	C582.433716,708.931091 569.096313,720.476257 554.492065,730.478882 
	C524.672180,750.903198 492.381683,766.241455 457.522003,775.544861 
	C414.152588,787.119446 370.150024,788.857788 325.763306,781.605896 
	C270.500031,772.577087 221.443375,750.124390 178.621658,714.148315 
	C155.918869,695.074768 136.264084,673.181274 119.867393,648.423035 
	C115.706764,642.140625 113.341469,641.629883 106.525253,645.333252 
	C104.858292,646.239014 102.977547,647.836426 101.111862,645.867920 
	C99.099228,643.744263 99.949310,641.394165 101.522835,639.532593 
	C104.200157,636.365173 107.161156,633.438721 109.970261,630.381104 
	C112.549431,627.573669 112.225121,625.200012 109.125198,622.862488 
	C106.007347,620.511475 102.308167,618.682861 101.271767,614.246277 
	C100.789162,612.180237 99.024208,612.229187 97.212273,613.043457 
	C94.483452,614.269836 91.699257,615.383118 88.895294,616.428345 
	C87.166199,617.072815 85.311783,617.522095 83.556839,616.569824 
	C81.416214,615.408386 78.475052,614.818359 78.135887,611.912170 
	C77.807625,609.099487 80.457451,608.191284 82.374405,606.927795 
	C83.314217,606.308350 84.189690,605.591309 85.464958,604.642639 
	C82.586967,602.675842 79.700699,601.421326 77.566818,599.133240 
	C75.943451,597.392517 75.090340,595.458069 76.185120,593.247314 
	C77.185814,591.226562 79.143967,590.836060 81.295326,590.896912 
	C88.641602,591.104675 89.488098,590.045532 87.083961,583.414917 
	C80.656357,565.687500 76.145538,547.466370 72.826439,528.927368 
	C71.902534,523.766846 70.464729,523.001404 66.484367,526.060974 
	C62.645184,529.012024 59.483601,530.900085 55.755394,525.774902 
	C54.308899,523.786438 51.205257,524.142273 48.682510,524.040344 
	C41.788383,523.761963 40.776199,522.137390 43.554695,516.055603 
	C45.725662,511.303619 44.276653,508.000702 39.238136,506.414520 
	C36.364403,505.509766 33.413143,505.133820 30.376364,505.115265 
	C26.168943,505.089569 22.091209,504.415039 18.505169,501.896515 
	C16.853222,500.736359 14.826353,499.775024 15.208483,497.385193 
	C15.592397,494.984070 17.894167,494.558197 19.786663,494.099121 
	C26.252449,492.530762 32.756004,491.118225 39.243546,489.639191 
	C40.177307,489.426331 41.102261,489.174805 42.919670,488.717773 
	C36.581036,487.596100 31.378197,486.247192 27.537693,481.837494 
	C23.919237,477.682800 24.584118,475.160706 29.878798,473.772339 
	C36.314156,472.084900 42.811859,470.608215 49.178185,468.693207 
	C54.109562,467.209869 58.886436,465.209076 63.719978,463.406067 
	C65.847298,462.612549 67.510017,461.236877 68.218224,459.023285 
	C69.072273,456.353760 68.540138,454.214417 65.290642,454.085449 
	C55.501621,453.696991 47.014633,448.183044 37.397820,447.100250 
	C35.986237,446.941345 34.586094,446.056244 33.328896,445.270050 
	C29.813791,443.071899 29.841200,440.512878 33.537228,438.593781 
	C38.655827,435.936066 44.340054,435.404236 49.959354,434.693329 
	C56.047142,433.923157 62.053986,432.818970 68.008354,430.106903 
	C66.705162,427.722717 64.458336,427.965973 62.724255,427.509583 
	C54.740540,425.408325 47.092495,422.760406 41.286110,416.441437 
	C39.654148,414.665466 38.019493,412.929108 39.076599,410.304504 
	C40.275585,407.327637 42.971958,407.338776 45.448677,407.754791 
	C51.727303,408.809509 58.026554,409.257507 64.359001,408.749939 
	C69.762695,408.316864 74.570679,406.437225 78.221336,402.625031 
	C77.893074,400.582367 76.725304,400.203644 75.558647,400.171997 
	C65.607559,399.901855 59.095730,392.769714 51.369747,388.080231 
	C50.230343,387.388641 49.334442,386.249390 49.661991,384.721649 
	C50.072502,382.806915 51.703728,382.837982 53.192261,382.623993 
	C62.081066,381.346222 70.966919,380.047852 79.853065,378.751617 
	C80.812363,378.611694 81.887634,378.805420 82.780174,377.586731 
	C82.443329,375.624481 80.723450,375.574310 79.133705,375.357178 
	C72.464218,374.446136 66.357094,371.666626 60.047459,369.570892 
	C58.345104,369.005463 56.319225,368.359711 56.161209,366.177002 
	C56.012390,364.121368 58.009235,363.613190 59.410320,362.818451 
	C62.430752,361.105164 64.766113,359.399536 62.093822,355.426300 
	C60.267090,352.710297 62.197803,351.225739 64.663322,350.209106 
	C69.894775,348.052032 75.134155,345.905273 80.286324,343.569122 
	C82.390953,342.614807 84.422905,341.362823 86.232582,339.924896 
	C89.677597,337.187592 89.462173,334.933472 85.757805,332.529724 
	C84.920479,331.986328 84.003128,331.566315 83.165802,331.022919 
	C78.845894,328.219543 78.774429,326.174408 82.934166,323.160675 
	C87.250107,320.033783 91.572426,316.913788 95.950562,313.875244 
	C99.414047,311.471466 99.201935,309.211914 95.940666,306.863281 
	C94.996010,306.182983 94.094574,305.435120 93.222778,304.662445 
	C87.833649,299.885986 87.545143,297.692139 91.610291,291.950165 
	C99.223701,281.196259 103.424362,269.302032 103.667473,256.076111 
	C103.708473,253.845657 103.732414,251.419312 106.519653,250.971848 
	C109.424690,250.505463 110.562798,252.683929 111.327400,255.045197 
	C112.060593,257.309479 112.040077,259.551666 111.715187,261.933228 
	C110.369705,271.796051 111.308395,281.171967 117.747177,289.418945 
	C119.567787,291.750824 120.762695,294.583435 122.158951,297.231506 
	C124.014854,300.751251 126.021729,301.059753 128.435150,297.745575 
	C133.930954,290.198578 139.857971,283.006531 146.009491,275.978699 
	C178.544205,238.809174 217.798965,211.153809 263.544739,192.626541 
	C290.095093,181.873520 317.641022,174.811539 346.091125,171.965103 
	C412.637726,165.307037 475.341370,178.063553 533.679749,210.978973 
	C576.075684,234.899384 610.609009,267.412109 637.722900,307.826965 
	C638.623596,309.169434 639.260071,310.825562 641.842651,311.526154 
	C645.554321,306.337433 647.060059,300.077087 648.661133,293.902466 
	C649.282715,291.505371 649.488586,288.972839 649.633423,286.487427 
	C649.783752,283.906677 650.511292,281.653839 653.278259,281.282043 
	C656.484375,280.851196 657.661926,283.405945 658.130371,285.920502 
	C658.950562,290.323181 659.784363,294.781158 659.928101,299.238068 
	C660.127869,305.429230 663.640747,309.379608 667.981995,312.939606 
	C673.669922,317.603821 673.401855,320.317505 666.863647,323.676605 
	C665.572083,324.340179 663.875793,324.368927 662.939148,326.281189 
	C664.233887,329.628113 667.300903,331.284027 670.489685,332.597290 
	C674.378845,334.199097 674.723816,336.380402 672.209045,339.479004 
	C670.677124,341.366638 668.655457,343.017639 668.672852,346.219727 
	C673.020142,347.078003 677.365051,347.898590 681.691589,348.806396 
	C683.702026,349.228241 685.876038,349.917358 685.782715,352.409180 
	C685.693237,354.800415 683.568665,355.400696 681.553833,355.962311 
	C674.809326,357.842224 668.043823,358.895935 661.094055,356.449860 
	C663.610657,359.722046 664.368469,359.919800 671.143799,359.997253 
	C674.532288,360.035980 677.764587,359.371155 680.896301,358.142914 
	C682.662109,357.450348 684.460205,356.807190 685.907104,358.615875 
	C687.182678,360.210266 687.335510,362.027954 686.031860,363.679901 
	C684.755737,365.296967 684.364014,366.557434 685.859192,368.470428 
	C687.721008,370.852448 685.557861,372.444458 683.909180,373.820465 
	C681.548645,375.790680 678.588684,376.511261 675.721069,377.361755 
	C673.976013,377.879303 672.560913,378.427795 673.238281,380.765320 
	C673.898438,383.043518 675.617065,383.100952 677.195007,382.491730 
	C680.132935,381.357452 682.926270,379.850494 685.787476,378.515015 
	C688.120850,377.425812 690.582153,376.456970 692.718994,378.655823 
	C695.070984,381.076019 693.972717,383.592651 692.327393,385.889923 
	C689.494568,389.844971 686.197021,393.383514 682.076355,396.006195 
	C679.961975,397.351929 678.289246,398.556549 679.295288,401.489899 
	C680.328735,404.503418 679.846741,408.380524 684.297424,409.176514 
	C687.734375,409.791199 691.118469,410.696564 694.657532,410.661499 
	C696.101196,410.647186 698.026917,410.349426 698.440186,412.239319 
	C698.909058,414.383453 696.923523,415.001984 695.412598,415.565399 
	C692.454102,416.668488 689.476318,417.795776 686.414124,418.524475 
	C682.973816,419.343170 683.600037,421.394684 684.118408,423.853333 
	C684.737305,426.789185 686.426025,426.718079 688.553528,425.845856 
	C690.088989,425.216370 691.610168,424.532654 693.076599,423.757446 
	C697.391418,421.476288 701.124817,422.109009 704.085938,425.864380 
	C706.447876,428.859955 705.362183,431.450867 702.818481,433.709869 
	C699.149658,436.968201 694.632690,438.792297 690.015747,441.189117 
M565.126038,582.684814 
	C565.999329,581.190430 565.587830,579.971313 563.994263,579.576050 
	C561.577393,578.976746 559.000366,578.953186 556.638428,578.214905 
	C548.464355,575.659973 540.624207,572.420166 536.119263,564.453308 
	C534.916077,562.325562 533.802917,559.641602 536.011475,557.487122 
	C538.028992,555.519043 540.397827,556.815186 542.544006,557.655640 
	C547.230103,559.490784 552.029724,560.837402 557.088867,560.926880 
	C561.516907,561.005188 563.682983,558.206299 564.732422,554.355896 
	C565.796143,550.453186 563.098206,549.298035 560.169495,547.897034 
	C551.231812,543.621521 542.917053,538.519958 537.867004,529.435913 
	C536.513367,527.000854 535.653076,524.832642 538.122986,522.790222 
	C540.597534,520.743896 542.793152,522.318237 544.155579,524.155090 
	C549.189392,530.941589 555.500427,529.952393 562.099915,527.479065 
	C565.876709,526.063599 566.221191,524.248901 562.914001,521.954895 
	C554.785645,516.316589 551.888733,507.580017 549.096313,498.876831 
	C548.063232,495.656952 547.968323,491.960968 551.114136,489.295685 
	C553.902954,490.048248 554.334534,492.683472 555.752563,494.427032 
	C557.290710,496.318451 558.366516,499.246674 561.393127,498.513123 
	C564.309082,497.806366 563.774475,494.797211 563.974243,492.594208 
	C564.388184,488.029388 566.605591,486.120026 571.229797,486.644897 
	C573.167175,486.864777 575.269958,486.652496 577.151978,486.121185 
	C581.127136,484.998932 581.669678,482.584656 578.863708,479.509369 
	C577.012756,477.480652 574.425903,476.603424 572.145142,475.246246 
	C568.949646,473.344757 565.689697,471.420105 565.807007,467.030365 
	C565.928223,462.495636 569.665222,461.815491 572.901428,460.481110 
	C580.842529,457.206940 582.628357,454.358612 581.510925,447.025635 
	C574.668335,402.121368 555.884338,362.995178 523.183167,331.370850 
	C479.762085,289.379730 427.251343,270.637268 367.067078,274.134308 
	C323.336731,276.675293 284.457458,292.292938 250.426071,319.903290 
	C236.885361,330.889130 225.201111,343.629364 214.882568,357.649628 
	C212.668060,360.658600 211.222076,363.473297 214.970428,366.714966 
	C218.631012,369.880737 218.897690,373.991028 216.064529,377.922455 
	C213.701111,381.202026 214.871063,383.077850 218.063721,384.460968 
	C220.491562,385.512726 223.333969,387.265350 222.261444,389.820221 
	C219.731171,395.847565 219.144348,403.424774 211.112244,405.845734 
	C207.665421,406.884613 204.532684,408.728912 204.153961,412.872253 
	C205.444351,413.856964 206.489166,413.571960 207.236038,412.934723 
	C212.890198,408.110657 218.501541,409.665192 224.401352,412.575958 
	C230.686157,415.676758 231.712616,418.983978 227.630249,424.710480 
	C224.745026,428.757721 220.378937,430.892487 215.782196,433.535767 
	C219.244949,435.644928 222.776779,436.777222 224.181473,440.704468 
	C226.216827,446.394928 226.834915,446.506104 232.007797,443.855499 
	C234.336578,442.662231 236.725586,441.394592 238.699844,444.034882 
	C240.464355,446.394562 240.415833,449.133728 238.440262,451.421021 
	C236.709244,453.425201 234.714981,455.212616 232.750687,457.000916 
	C231.432068,458.201324 230.035889,459.475952 231.700027,461.135712 
	C237.096298,466.518036 236.308899,472.501892 233.600098,478.665985 
	C232.275879,481.679321 233.500473,482.926880 236.325180,483.603271 
	C238.901123,484.220093 241.469193,484.942200 243.947296,485.867950 
	C245.424118,486.419678 246.427856,487.569946 245.657196,489.419556 
	C244.211929,492.888367 237.393951,497.358826 233.504578,497.186340 
	C223.868652,496.758942 214.608963,498.662598 205.548157,501.677979 
	C203.010391,502.522522 200.304916,503.319458 197.771729,506.100647 
	C208.469315,508.051025 218.262146,508.733978 228.108459,506.047729 
	C233.957642,504.451996 239.258911,501.701996 244.453735,498.677826 
	C246.882599,497.263855 249.364639,496.453918 251.825760,498.646698 
	C253.761780,500.371613 255.818573,499.826385 257.913696,499.024078 
	C263.125702,497.028107 266.971619,493.466309 269.609589,488.620331 
	C271.551208,485.053558 273.873901,481.894104 277.302429,479.591644 
	C280.449707,477.477997 281.823090,474.486328 281.705292,470.629974 
	C281.424622,461.443024 282.769409,452.346771 284.155273,443.330688 
	C286.392883,428.773529 294.966309,416.677277 303.382111,405.620422 
	C311.448914,395.022003 319.861237,385.100403 325.632843,372.847870 
	C334.258698,354.536133 350.285217,341.844818 363.102417,326.716278 
	C364.225037,325.391266 366.049072,324.332001 367.742950,323.876099 
	C375.307434,321.839905 382.410736,318.152435 389.864960,316.364532 
	C397.614960,314.505707 403.091522,310.613007 407.965118,304.962524 
	C412.685547,299.489563 417.967163,294.695770 424.625122,291.653168 
	C437.552734,285.745453 444.879608,288.560822 450.461243,301.665619 
	C452.811584,307.183838 455.016052,312.752289 458.506470,317.701294 
	C460.328888,320.285278 460.954193,323.363861 460.149536,326.298431 
	C459.132874,330.006287 459.831665,333.219574 461.767761,336.256775 
	C463.578339,339.097168 463.699707,341.806915 461.955231,344.677368 
	C458.341309,350.623962 456.424530,356.943359 457.239685,364.033691 
	C457.544556,366.685669 456.556091,369.310181 455.155365,371.633453 
	C452.401642,376.200989 449.400299,376.823853 445.041656,373.724396 
	C444.071594,373.034607 443.237823,372.090759 441.977203,372.921448 
	C440.941254,373.604095 440.192871,374.745911 440.515289,375.902771 
	C442.056091,381.431152 441.501526,387.455566 445.320648,392.470856 
	C450.553772,399.342896 456.101257,406.047821 459.609192,414.098419 
	C461.030334,417.359863 463.972656,419.021545 467.149506,420.274384 
	C499.998383,433.228973 518.267883,459.770935 531.427490,490.532471 
	C535.494751,500.039917 535.619873,510.556763 527.589050,519.091248 
	C525.246399,521.580872 523.108093,523.644165 519.870178,518.872986 
	C517.730103,515.719604 517.127686,513.777771 518.870667,510.695740 
	C519.979553,508.735016 520.302612,506.224213 519.421326,504.372742 
	C515.303284,495.721222 513.013306,485.448212 501.615021,482.712738 
	C500.709595,482.495422 499.809937,481.806091 499.143616,481.110107 
	C492.559784,474.233093 484.630219,470.395477 475.036591,470.045135 
	C472.437042,469.950195 470.314636,468.524231 468.458954,466.764557 
	C466.755157,465.148956 465.017975,463.554138 462.677338,462.960785 
	C457.326324,461.604340 453.608093,458.254059 450.894043,453.593475 
	C448.055084,448.718506 443.458893,446.098419 438.464203,444.005249 
	C436.521729,443.191162 433.838959,443.281799 434.708160,445.681305 
	C436.334930,450.172028 434.765930,454.671875 435.639313,458.821259 
	C437.867035,469.404938 440.913239,479.902527 448.284637,488.348175 
	C454.114014,495.027069 459.387146,501.913300 462.562988,510.405975 
	C463.835510,513.808899 463.280670,517.506958 464.792297,520.483704 
	C469.246979,529.255920 470.906372,539.138611 476.257233,547.575745 
	C480.426758,554.150146 480.372986,561.362732 477.534363,568.686401 
	C474.582581,576.301941 473.593170,584.101990 476.605133,592.052063 
	C477.174622,593.555176 477.566162,595.419128 477.218903,596.927551 
	C475.250122,605.479614 477.365021,614.712952 472.879974,622.844238 
	C472.523224,623.491028 472.336182,624.731323 472.703308,625.199829 
	C476.263672,629.743774 473.927307,634.870605 474.216888,639.704712 
	C474.495422,644.353638 474.064819,649.048279 474.403015,653.689575 
	C474.888947,660.358704 480.792511,665.993103 487.576691,666.744751 
	C492.704712,667.312866 495.158325,665.040527 497.702179,657.263062 
	C498.353699,655.271179 498.989960,653.515442 501.671448,653.658569 
	C507.113190,653.949036 508.948608,652.339905 509.695343,646.689209 
	C510.001068,644.375610 509.774323,641.775452 512.585571,640.886902 
	C515.307251,640.026672 516.910461,642.057556 518.493347,643.756226 
	C521.588989,647.078491 525.474731,648.815491 529.859619,649.537354 
	C533.809631,650.187561 537.065308,648.739624 539.750000,645.911743 
	C542.224854,643.304810 542.245789,640.928711 538.863464,639.067810 
	C536.383850,637.703735 533.569336,636.763855 531.435242,634.994385 
	C526.762268,631.119934 519.769043,629.041870 519.728638,621.243530 
	C519.711426,617.916687 519.880310,614.585449 520.071472,611.262329 
	C520.185425,609.280579 520.175964,606.932312 522.622986,606.369934 
	C524.853943,605.857117 525.701965,607.951294 526.681091,609.445618 
	C529.160583,613.229614 532.360474,616.041016 536.969543,616.647949 
	C539.256775,616.949097 542.043396,617.134155 543.040344,614.459839 
	C544.003174,611.876892 541.504761,610.778687 539.838745,609.451965 
	C536.607483,606.878662 532.639526,605.156616 530.419922,601.410156 
	C529.590454,600.010071 528.278137,598.593750 529.379395,596.851562 
	C530.427612,595.193359 532.182556,595.386353 533.888000,595.570312 
	C541.515869,596.392883 541.517273,596.379578 541.691345,589.015137 
	C541.807678,584.089966 544.111023,582.382324 548.346802,584.720703 
	C554.291809,588.002625 559.509583,586.925171 565.126038,582.684814 
M348.186890,684.250549 
	C348.221436,685.852295 347.727722,687.701355 350.535034,688.394165 
	C355.796112,683.318481 357.910736,676.412781 359.474152,669.860474 
	C362.464569,669.185364 362.462769,672.647766 364.819824,672.139893 
	C367.136353,670.479431 368.209015,667.770874 369.768127,665.446228 
	C372.545319,661.305603 376.098419,658.190979 380.868317,656.563843 
	C382.229950,656.099426 383.525635,656.058044 384.488525,657.305298 
	C385.519714,658.641174 384.888367,659.916260 383.953400,660.902222 
	C382.824127,662.093079 381.520966,663.136292 380.208588,664.132202 
	C378.347534,665.544556 376.454559,666.885986 376.436768,670.000610 
	C379.440033,669.353943 380.227814,672.687866 382.446320,673.324158 
	C384.539490,672.557434 385.422058,670.895325 386.521393,669.449097 
	C389.895416,665.010559 394.106842,661.503174 398.859619,658.663757 
	C400.915863,657.435303 403.334442,656.497681 405.109436,658.976685 
	C406.838531,661.391479 404.783447,662.934937 403.248566,664.453247 
	C400.936249,666.740601 397.767517,668.291992 396.646240,672.423462 
	C403.935791,673.895935 397.650879,678.830505 399.084503,682.460205 
	C401.566254,681.528381 402.760651,679.429810 404.378906,677.884033 
	C406.183167,676.160583 407.803314,674.237854 409.662170,672.579529 
	C414.508453,668.256042 415.165619,668.388245 418.594147,674.350037 
	C422.271271,671.823730 425.892059,669.259094 429.595398,666.819763 
	C431.948792,665.269592 434.593201,663.215332 437.147522,666.079895 
	C439.745819,668.993652 437.399078,671.241943 435.408386,673.347717 
	C433.692535,675.162842 431.971802,676.974854 430.306061,678.835571 
	C428.875824,680.433289 426.835510,682.173157 427.978943,684.419800 
	C429.031036,686.487061 431.723938,686.283386 433.812195,686.527222 
	C436.106873,686.795105 437.474609,685.593201 438.104675,683.281250 
	C438.801086,680.725830 439.589630,678.149536 440.734192,675.773071 
	C442.416748,672.279419 442.552734,669.026672 441.387848,665.235352 
	C437.727814,653.323181 434.471252,641.275085 433.423584,628.789856 
	C432.870880,622.203125 431.786285,615.951294 427.058289,610.831482 
	C424.903442,608.497986 425.185730,605.567261 426.359558,602.820374 
	C427.718262,599.640930 428.060150,596.322510 427.470062,593.023621 
	C426.255676,586.234436 427.566681,579.794250 429.674103,573.424561 
	C430.257233,571.662170 431.028473,569.935913 429.942383,568.154724 
	C426.035309,561.746765 424.550598,554.040710 419.856781,548.143921 
	C413.509308,540.169800 407.753174,531.938538 403.875458,522.446716 
	C402.721802,519.622803 400.221466,516.093811 397.438660,517.224609 
	C393.913849,518.656860 389.352203,517.716858 386.733276,521.765137 
	C381.527588,529.811951 380.452362,539.319702 378.780609,548.147400 
	C377.058075,557.243164 371.023956,562.637512 365.567444,567.810547 
	C361.830627,571.353210 357.805115,574.594360 354.728302,578.866760 
	C351.530121,583.307617 348.815002,588.488586 343.213593,590.247803 
	C336.249237,592.434937 331.416473,597.015991 327.661133,602.865295 
	C322.132294,611.476929 314.394562,617.676941 306.209045,623.473816 
	C304.288483,624.833923 302.315338,625.503174 300.177490,624.258789 
	C297.457947,622.675842 295.969727,623.896545 295.454407,626.438843 
	C294.800476,629.664856 293.165253,631.446777 289.827148,631.727539 
	C287.545593,631.919495 285.924133,633.520996 284.222290,634.833313 
	C279.872711,638.187256 275.526215,641.548645 271.269714,645.018860 
	C267.875977,647.785706 263.874481,650.199890 261.446930,653.680237 
	C255.797043,661.780518 257.125671,668.041138 264.882233,674.531128 
	C265.958221,675.431396 266.759125,676.458618 267.091309,677.764893 
	C267.851654,680.754944 269.991241,681.590942 272.735504,681.608887 
	C274.234711,681.618713 275.736755,681.596375 277.232239,681.681641 
	C279.322723,681.800659 281.905273,681.022827 283.075043,683.426270 
	C284.399994,686.148560 281.693329,687.543396 280.465729,689.384705 
	C279.304626,691.126343 276.997162,692.098755 276.923645,694.831726 
	C277.350525,695.160645 277.805756,695.780212 278.371887,695.907837 
	C289.251007,698.359558 300.177704,700.467712 311.423981,699.456909 
	C312.736908,699.338928 314.200928,698.980286 314.598541,697.451233 
	C315.050568,695.713013 313.827271,694.642944 312.600403,693.749573 
	C310.181549,691.988159 306.877380,690.814331 305.442139,688.475342 
	C303.192841,684.809570 300.749115,682.590881 296.386658,682.327881 
	C294.964630,682.242188 293.609680,681.032288 293.515106,679.282043 
	C293.413788,677.406677 294.560852,676.208801 296.061279,675.288452 
	C297.433014,674.447021 298.975769,674.829468 300.438873,674.629639 
	C304.681427,674.050049 308.196655,676.954346 312.518860,677.408691 
	C312.575409,673.466614 310.116760,671.382141 308.193329,668.954407 
	C306.241394,666.490723 302.432129,663.697266 306.320770,660.615845 
	C309.916199,657.766663 311.740326,662.125977 313.807129,664.185242 
	C316.781067,667.148254 318.434509,671.316895 322.053833,673.871094 
	C323.689301,671.948975 322.899963,670.063354 322.836243,668.331970 
	C322.314941,654.171265 324.740875,640.505249 329.554962,627.224792 
	C330.283691,625.214539 331.406189,623.405640 333.873383,624.062073 
	C336.645966,624.799744 336.609467,626.969910 335.961395,629.297485 
	C333.975861,636.428711 333.371857,643.697205 334.008484,651.062683 
	C334.174774,652.986694 333.941254,655.142334 336.309174,656.397034 
	C344.880737,650.666443 340.437958,660.750793 343.496307,662.455627 
	C346.420044,662.294006 347.678345,659.702148 349.259705,657.721313 
	C353.134155,652.868103 357.590637,648.658691 362.608429,645.026489 
	C363.844788,644.131592 365.266846,643.122314 366.645844,644.421326 
	C367.907166,645.609497 367.410767,647.145081 366.669281,648.571228 
	C364.514496,652.715515 361.915924,656.562500 359.179993,660.342957 
	C354.105835,667.354431 348.736084,674.258301 348.186890,684.250549 
M552.895081,319.593903 
	C553.387756,320.042816 553.896912,320.475067 554.370544,320.943207 
	C559.886414,326.394928 561.517395,325.348541 554.498840,332.285309 
	C554.380432,332.402344 554.284424,332.546783 554.153137,332.645386 
	C551.026306,334.993835 551.526062,337.148529 553.816467,340.073425 
	C578.600403,371.723267 593.861694,407.407257 598.343384,447.452301 
	C599.262817,455.667969 599.273621,463.741180 610.426514,464.483154 
	C611.968384,464.585693 613.370544,466.069824 614.950256,466.497955 
	C617.055603,467.068512 619.192871,468.349152 622.228943,466.867096 
	C619.718018,465.541473 617.729675,464.446869 615.702026,463.430664 
	C611.537048,461.343292 608.368408,458.259125 606.326660,454.072815 
	C605.387329,452.146729 604.139954,450.132629 605.915283,448.047394 
	C607.563904,446.110931 609.585266,446.953918 611.455872,447.616394 
	C615.821167,449.162384 620.317444,449.282715 624.777039,448.551147 
	C627.763000,448.061340 631.036133,447.505920 632.318298,443.924927 
	C630.305115,441.750305 627.693970,441.697357 625.358154,440.984192 
	C623.267395,440.345856 620.937622,439.761597 620.204041,437.462158 
	C618.911316,433.409729 616.898682,429.862823 614.060181,426.721924 
	C613.256409,425.832458 612.837280,424.692688 613.676392,423.527802 
	C614.490906,422.397034 615.688599,422.361755 616.831299,422.716919 
	C619.053162,423.407501 621.184998,424.429871 623.436401,424.974762 
	C629.042419,426.331512 634.397339,426.082581 639.332153,422.204773 
	C637.603516,420.268555 635.997375,420.330811 634.309509,420.756195 
	C632.530457,421.204590 630.789673,420.893127 629.827576,419.369537 
	C627.748474,416.077118 624.598511,414.972504 621.050110,414.351227 
	C618.500977,413.904938 616.450256,412.395905 614.610229,410.701660 
	C613.144958,409.352509 611.570312,407.734589 612.708801,405.509399 
	C613.924927,403.132416 616.029175,403.877716 617.977051,404.485992 
	C620.208252,405.182800 622.443542,405.801208 624.827881,405.682770 
	C627.046631,405.572571 629.627808,405.477722 630.295288,403.103577 
	C631.070312,400.346832 628.543213,398.999573 626.510925,397.927368 
	C624.474915,396.853149 622.120056,396.373291 620.111572,395.260071 
	C618.224182,394.213959 616.272888,392.661591 616.993713,390.137024 
	C617.698181,387.669525 620.007568,388.830994 621.710327,388.659485 
	C622.303162,388.599792 622.865479,388.235962 623.568481,387.961548 
	C623.545105,385.318207 621.911194,383.450500 621.226318,381.274017 
	C620.787720,379.880188 620.882385,378.626923 621.942932,377.582123 
	C623.052612,376.488983 624.392700,376.601593 625.652771,377.206665 
	C627.150574,377.925903 628.523499,378.913330 630.038330,379.587494 
	C634.996826,381.794128 639.975464,382.897888 645.296509,379.450165 
	C642.596802,376.691833 639.541687,376.417877 636.359131,376.224518 
	C629.809265,375.826630 624.711609,372.563354 620.632507,367.628845 
	C619.380371,366.114075 618.004150,364.291962 619.303467,362.207214 
	C620.704956,359.958527 622.774597,361.108490 624.708862,361.496979 
	C627.186707,361.994690 629.673096,363.712128 632.364136,361.737915 
	C632.431458,359.283661 632.050598,356.433228 629.992920,355.534485 
	C624.950439,353.332214 624.828796,350.219757 625.534668,345.245270 
	C626.520691,338.296570 625.804749,338.201569 632.440247,338.404907 
	C632.645935,338.411224 632.865479,337.964050 633.553406,337.202881 
	C629.999084,331.465607 626.429504,325.503723 622.662659,319.669159 
	C616.515625,310.147705 609.975952,300.898346 602.407715,292.437744 
	C600.971985,290.832733 599.042053,287.982758 596.694275,290.415039 
	C592.279297,294.988831 589.238831,293.776550 586.172119,289.123169 
	C585.276001,287.763458 583.844788,286.753510 582.645691,285.596832 
	C576.314697,279.489746 575.393921,279.532532 569.868896,286.171295 
	C569.549255,286.555389 569.250366,286.957886 568.915283,287.327789 
	C567.019958,289.420319 566.955200,291.353394 569.165100,293.349304 
	C571.388489,295.357391 573.419983,297.576630 575.612915,299.620331 
	C577.405029,301.290466 577.473572,302.792938 575.961121,304.799591 
	C569.749084,313.041656 568.283813,313.256714 560.642456,306.672791 
	C559.640991,305.809937 558.553650,305.021210 557.417236,304.348083 
	C556.370422,303.728088 555.327698,303.740173 554.151794,304.448730 
	C546.911621,308.811432 546.308594,313.523224 552.895081,319.593903 
M138.744751,316.198883 
	C136.320511,320.172363 131.880157,324.194275 131.974152,328.107269 
	C132.096024,333.182281 129.933136,335.643585 126.847931,338.261230 
	C128.564438,340.452576 128.564438,340.452576 133.409058,342.535278 
	C141.319214,345.935883 142.837219,348.979675 139.500061,356.204773 
	C144.942841,355.490601 149.969131,356.017456 154.900162,357.374115 
	C156.718552,357.874420 158.626007,358.324921 159.039078,360.448090 
	C159.494995,362.791504 157.894165,364.183594 156.070709,365.155853 
	C153.120560,366.728882 150.153000,368.240601 147.970856,370.883179 
	C145.417877,373.974792 142.113281,375.669098 138.200562,376.435303 
	C133.545273,377.346924 128.927521,378.450195 124.178520,379.495758 
	C125.046234,382.226929 127.155281,382.632965 128.902008,383.401886 
	C135.779724,386.429565 142.925766,388.635406 150.266769,390.238678 
	C152.048431,390.627808 153.908096,391.048737 154.422989,393.272156 
	C154.927475,395.450562 153.614655,396.755554 152.139618,397.889862 
	C147.572342,401.402100 142.545547,403.862885 136.693008,404.294617 
	C134.746948,404.438202 132.701721,404.326416 131.246368,407.080566 
	C139.573807,409.509155 147.677643,411.880585 155.788467,414.227783 
	C156.810699,414.523621 158.001175,414.402740 158.533920,413.524994 
	C161.313965,408.944641 165.370865,410.446533 169.228119,411.192688 
	C171.087189,411.552338 172.755569,412.033875 174.092224,410.043762 
	C176.567734,406.358154 176.256165,401.416321 172.984421,398.232025 
	C170.659103,395.968872 168.756500,393.470612 167.933289,390.340820 
	C166.536346,385.029755 168.936096,382.264313 174.374603,382.789093 
	C176.358826,382.980560 178.322311,383.532410 180.303345,383.579498 
	C183.839584,383.663513 185.096725,381.602844 184.334839,378.367065 
	C183.959076,376.771149 183.081009,375.291748 182.415436,373.766113 
	C179.666931,367.465729 181.332108,364.489746 188.297150,363.638824 
	C193.600708,362.990875 196.651321,360.210510 197.878067,354.984253 
	C198.927124,350.515015 198.469223,346.031494 198.654037,341.552643 
	C198.790909,338.235809 200.376801,335.892792 203.626892,337.870605 
	C206.951431,339.893799 208.457550,338.347748 210.186218,336.154572 
	C217.013092,327.493317 224.717255,319.678253 232.949188,312.359070 
	C234.013199,311.413025 235.467255,310.595795 235.330170,308.744354 
	C235.067902,308.353333 234.875717,307.834625 234.504501,307.546783 
	C218.316589,294.993988 202.127289,282.442871 185.898163,269.943512 
	C182.865372,267.607697 180.170319,267.742767 177.158081,270.653809 
	C162.967621,284.367401 150.339310,299.368774 138.744751,316.198883 
M329.197998,433.893036 
	C328.378662,438.123901 327.972473,442.490021 326.642456,446.553741 
	C324.682190,452.543091 321.338928,458.014893 319.604645,464.136017 
	C317.901184,470.148376 314.742737,475.408112 310.972473,480.354614 
	C307.036591,485.518494 303.207275,490.764496 299.380249,496.010223 
	C292.786072,505.048950 283.975433,511.159729 273.010590,512.547668 
	C264.854523,513.580017 256.341278,515.453979 248.127197,511.206055 
	C244.058258,509.101807 237.530106,513.813599 237.438751,518.771301 
	C237.346497,523.779541 234.986237,525.747314 230.392303,526.735168 
	C222.384766,528.457031 221.548325,531.108948 226.406189,537.623047 
	C229.330795,541.544739 228.593170,543.729004 223.830734,545.141541 
	C222.035843,545.673889 219.722916,545.344666 219.144974,548.343018 
	C221.589355,549.434631 224.050385,548.719421 226.413605,548.471619 
	C231.455643,547.942993 236.381775,548.569275 241.246399,549.737366 
	C243.497635,550.277893 246.094711,550.915161 247.075745,553.196655 
	C248.506714,556.524536 250.972610,557.841675 254.258362,558.596680 
	C255.985382,558.993469 257.601837,560.059998 259.144562,561.022278 
	C261.048401,562.209839 262.529022,563.812683 262.297455,566.297791 
	C262.058899,568.857910 260.136932,569.885437 258.037842,570.664673 
	C254.449341,571.996643 250.834488,573.258789 247.257904,574.621582 
	C243.867706,575.913452 244.029724,578.393005 245.175705,581.179565 
	C246.241791,583.771851 247.498413,585.728333 250.724243,583.720825 
	C253.459625,582.018494 254.719208,583.890930 255.573090,586.070496 
	C256.917297,589.501648 259.261414,591.910889 262.466705,593.648926 
	C265.938995,595.531616 268.386841,595.157593 269.874969,591.094543 
	C271.148285,587.617981 273.006287,584.388916 276.287231,582.393066 
	C281.444061,579.256226 284.596497,574.420898 288.001770,569.646790 
	C294.255524,560.879272 301.702393,552.815857 311.965393,549.249756 
	C320.017242,546.451904 323.788910,541.497925 325.757965,533.873901 
	C327.632141,526.617310 327.422211,518.989563 330.004089,511.876160 
	C331.944153,506.530853 333.443298,501.090912 332.670471,495.281647 
	C332.393555,493.200439 333.362518,491.450165 334.327118,489.648468 
	C336.994202,484.666901 339.573151,479.634247 342.034821,474.548126 
	C343.409576,471.707703 344.783630,468.809601 342.360046,465.670898 
	C341.145782,464.098358 342.121857,462.404724 343.141296,461.081238 
	C344.558533,459.241333 346.175903,457.553101 347.740173,455.829468 
	C349.570465,453.812744 351.010468,451.816223 348.006226,449.598267 
	C346.552521,448.525055 346.188049,447.114166 347.354584,445.721497 
	C350.315796,442.186371 350.521545,438.640747 348.065948,434.720276 
	C347.540192,433.880890 347.586060,432.310272 347.989777,431.333191 
	C349.121063,428.595398 348.202271,426.035309 347.581268,423.506256 
	C346.639069,419.669006 344.136963,418.654846 340.941498,420.938843 
	C336.330078,424.234985 331.924866,427.824982 329.197998,433.893036 
M530.817383,722.356384 
	C532.695190,720.845459 535.321350,720.156250 536.235046,717.613403 
	C535.422729,715.939697 534.056030,715.453186 532.486511,715.382324 
	C529.332581,715.239929 526.176270,715.020752 523.021912,715.035461 
	C505.541565,715.117310 488.094757,714.851074 470.659515,713.140991 
	C460.694397,712.163635 450.531403,712.569580 441.073273,716.281372 
	C427.795929,721.491821 414.269440,723.046814 400.028473,722.679565 
	C372.062134,721.958374 344.123474,721.382507 316.336060,717.781982 
	C285.692963,713.811401 254.949081,713.235168 224.138275,715.237488 
	C222.331268,715.354919 220.392685,715.290405 219.346420,717.971985 
	C223.064667,721.651733 227.697723,724.009216 232.784912,725.580566 
	C256.550903,732.921570 280.872162,737.560791 305.636902,739.480103 
	C336.918640,741.904358 368.210022,739.761658 399.459686,738.375244 
	C427.715363,737.121582 455.930054,733.593872 484.218536,734.912598 
	C501.196350,735.704041 516.508362,732.988342 530.817383,722.356384 
M336.573456,198.286880 
	C339.371216,213.795578 342.209320,229.297195 344.936462,244.818314 
	C345.563812,248.388687 346.843231,250.231232 350.922638,249.049011 
	C353.927673,248.178101 357.169952,248.160843 360.238892,247.464996 
	C362.937500,246.853119 364.142212,247.761169 364.901489,250.351852 
	C366.794495,256.810791 368.221527,257.590881 374.577454,256.654724 
	C377.183136,256.270935 378.083008,255.179855 377.064301,252.599518 
	C376.214874,250.447998 374.953064,248.198593 374.976379,246.004227 
	C375.171783,227.596817 369.031494,208.747360 378.698303,190.931183 
	C378.191040,190.676300 377.771820,190.302567 377.323883,190.264343 
	C364.799805,189.194717 352.417755,190.705627 340.064514,192.473846 
	C337.403015,192.854797 336.039154,194.655334 336.573456,198.286880 
M415.750183,236.756134 
	C415.129150,243.959564 414.432587,251.150192 411.553314,258.220764 
	C413.994965,258.774078 415.903503,259.433319 417.853638,259.596680 
	C420.979980,259.858521 424.407043,262.026306 427.103119,260.377838 
	C430.501068,258.300140 427.186523,254.689957 427.559784,251.699982 
	C429.352631,237.338654 431.676727,223.097275 435.898193,209.233566 
	C437.053192,205.440399 439.842590,202.780914 443.233429,200.713593 
	C444.373962,200.018234 446.249054,200.120285 446.600891,197.649445 
	C436.309235,194.966721 426.079834,192.344620 415.305664,192.121094 
	C415.241760,194.761063 416.636719,195.695053 417.286102,197.005722 
	C419.814667,202.109009 420.458069,207.453445 419.315155,212.990326 
	C418.240845,218.194870 414.104401,215.857117 411.175476,215.958054 
	C408.616913,216.046219 407.006317,214.957809 407.257660,211.627670 
	C407.650452,206.423233 403.882080,202.861588 398.288940,202.370850 
	C393.256134,201.929276 388.604156,205.206940 388.453033,210.129684 
	C388.146881,220.103271 388.177155,230.098343 388.459747,240.073502 
	C388.577637,244.235458 391.599762,246.812103 395.583710,247.245377 
	C399.614380,247.683701 402.652832,245.690018 403.836151,241.566742 
	C404.246033,240.138550 404.551819,238.654831 404.678833,237.177002 
	C404.877411,234.867020 406.028595,233.714157 408.270203,234.271210 
	C410.636108,234.859146 413.363129,234.023666 415.750183,236.756134 
M329.294220,229.082443 
	C327.586334,221.457855 325.564850,213.886536 324.257599,206.193863 
	C322.916870,198.304276 321.802948,195.274002 310.788696,197.956497 
	C309.497437,198.270981 308.248138,198.755310 306.960480,199.087570 
	C304.053253,199.837769 302.569977,201.527359 303.603210,204.566116 
	C304.654785,207.658630 303.044861,208.772446 300.464020,209.563828 
	C296.324707,210.833099 292.203430,212.176407 288.136261,213.658020 
	C286.477386,214.262329 284.113586,214.975739 284.515228,217.180145 
	C285.287903,221.420944 286.264465,225.985367 289.497131,228.922241 
	C292.259399,231.431824 295.500641,228.670273 298.325958,227.611481 
	C305.165802,225.048279 305.121063,224.934784 307.429626,232.160248 
	C307.632141,232.794037 307.807434,233.453949 308.124237,234.030960 
	C310.096008,237.622269 308.581635,239.303970 305.119568,240.737686 
	C292.244965,246.069351 294.701294,243.697403 298.819611,256.197021 
	C298.923279,256.511627 299.127441,256.794159 299.223022,257.110291 
	C300.102661,260.019440 301.950317,260.499359 304.625458,259.471619 
	C308.353973,258.039185 312.158905,256.806702 315.897766,255.399948 
	C318.115570,254.565491 319.529663,254.843826 320.672638,257.251740 
	C323.977173,264.213226 324.037567,264.022949 331.733002,261.940063 
	C335.045807,261.043427 335.974884,259.586639 335.185028,256.222534 
	C333.133362,247.484085 331.390503,238.673172 329.294220,229.082443 
M650.950195,535.310913 
	C650.706299,531.998230 650.685608,528.672058 649.798157,525.419312 
	C648.773438,521.663452 645.959351,519.943604 642.537292,519.563049 
	C638.761719,519.143127 637.966187,522.351868 637.440979,525.152405 
	C636.492004,530.212646 634.135986,534.525269 630.996277,538.487183 
	C627.340393,543.100403 622.847595,546.832214 618.049622,550.139709 
	C614.471558,552.606323 614.941162,554.776245 617.855957,557.186401 
	C622.632568,561.136047 628.084717,563.348999 634.329285,563.333801 
	C636.551575,563.328369 638.971558,563.111206 639.763733,565.715454 
	C640.550171,568.301086 638.386292,569.644775 636.611633,570.821411 
	C629.575439,575.486450 622.245789,579.274292 613.351685,578.242859 
	C611.790466,578.061768 610.004089,577.629089 608.711121,579.133911 
	C610.239685,588.795654 621.823303,593.679321 629.233337,587.843689 
	C632.370056,585.373474 635.492310,582.881958 638.697266,580.502747 
	C639.851196,579.646179 641.214783,578.395569 642.736145,579.478821 
	C644.467224,580.711304 643.688660,582.496338 643.085938,584.029480 
	C641.747375,587.434570 640.287109,590.791504 638.910522,594.181946 
	C638.356873,595.545349 638.310669,596.897766 639.964783,597.490845 
	C641.294556,597.967651 642.238831,597.137573 642.777100,596.016235 
	C646.585632,588.081360 651.540833,580.357422 652.438416,571.556458 
	C653.636108,559.812683 652.527466,547.961670 650.950195,535.310913 
M252.434937,219.133972 
	C250.332764,221.140579 251.299911,223.455200 251.879868,225.653107 
	C254.293182,234.799026 256.794800,243.921616 259.230499,253.061691 
	C261.665527,262.199219 263.952942,271.377686 266.512299,280.479950 
	C268.128784,286.228912 268.875061,286.387482 273.994781,283.632263 
	C277.066284,281.979279 280.230804,280.499939 283.339478,278.915009 
	C295.545197,272.692047 294.534271,275.693878 289.608948,263.386566 
	C289.361938,262.769379 289.094086,262.160583 288.839874,261.546204 
	C283.122437,247.727509 277.438538,233.894791 271.674377,220.095612 
	C268.835388,213.299088 266.515839,212.405212 259.727600,215.359390 
	C257.447266,216.351791 255.263351,217.565781 252.434937,219.133972 
M121.991676,531.306580 
	C125.464241,533.267883 128.841217,535.637939 133.037735,535.496887 
	C135.725876,535.406555 137.933426,535.776367 139.479507,538.248840 
	C140.099915,539.240906 141.157211,540.046265 142.441498,539.259460 
	C143.799622,538.427368 143.846924,536.982666 143.438141,535.691040 
	C142.301956,532.101013 139.477295,530.876709 136.027313,531.108093 
	C132.416534,531.350037 129.097626,530.988403 126.177116,528.576599 
	C122.158356,525.257874 117.852982,523.892151 112.828308,526.602905 
	C111.791992,527.161987 110.144424,527.111450 108.949219,526.760559 
	C104.189232,525.363403 102.647743,527.699402 102.100853,531.942749 
	C99.909203,548.947754 105.386436,564.439331 111.402855,579.824280 
	C112.355995,582.261658 114.169792,583.044067 116.587944,581.500793 
	C119.529869,579.623230 122.656044,580.045837 125.755074,580.913574 
	C130.238037,582.168823 134.678482,583.575623 139.158905,584.840393 
	C146.350677,586.870605 153.529800,588.961060 160.782059,590.751587 
	C162.810532,591.252441 165.481461,591.167297 166.176788,588.463013 
	C166.807816,586.008789 164.509567,585.127747 162.818161,584.120911 
	C158.933701,581.808838 154.483002,582.057068 150.234604,581.387878 
	C143.013397,580.250305 135.639832,579.634277 129.310043,575.388428 
	C125.579796,572.886292 122.277924,570.244263 126.410866,565.627991 
	C120.266373,558.453918 120.266373,558.453918 126.566246,552.543030 
	C125.866150,550.554626 123.921989,549.731567 122.397011,548.565369 
	C118.253296,545.396545 114.631386,541.781738 112.048378,537.200134 
	C110.850952,535.076050 109.975136,532.890076 111.693642,530.691467 
	C113.438431,528.459229 115.740944,528.796326 118.053680,529.680847 
	C119.141182,530.096863 120.217613,530.541748 121.991676,531.306580 
M531.893005,309.244080 
	C544.434143,294.828766 556.917908,280.362823 569.564209,266.040283 
	C572.137634,263.125763 572.218018,261.036743 569.076416,258.679718 
	C566.289307,256.588654 563.580688,254.367813 561.020874,252.005463 
	C558.037781,249.252502 556.025269,249.371597 553.546387,252.934998 
	C543.489441,267.391998 533.087585,281.608490 522.953491,296.012604 
	C516.183594,305.635010 517.404236,302.485352 524.865845,309.938141 
	C527.227783,312.297333 529.335754,312.488556 531.893005,309.244080 
M462.805939,270.437927 
	C464.554535,274.005066 468.407745,274.190338 471.387360,275.780121 
	C474.231934,277.297882 475.936371,276.356171 477.212128,273.488586 
	C479.777924,267.721344 482.595520,262.066711 485.257782,256.341675 
	C491.266327,243.420700 497.243591,230.485168 503.439758,217.110504 
	C494.633209,213.076416 486.519836,208.650543 475.787964,206.832748 
	C479.382507,213.780243 481.799377,219.762894 480.043488,225.846848 
	C475.674133,240.986038 470.830933,256.003967 462.805939,270.437927 
M548.225647,686.649536 
	C545.372253,686.854248 543.976013,685.533691 543.648315,682.677307 
	C543.069824,677.633606 539.450562,673.885803 534.148010,673.382751 
	C528.165405,672.815308 522.313721,672.037659 516.672913,669.771423 
	C513.111877,668.340759 510.759705,669.895386 510.439453,673.747253 
	C510.159302,677.116821 509.400696,680.240723 507.792145,683.250793 
	C505.036713,688.406921 505.935638,690.112366 511.780060,690.572998 
	C529.695679,691.985107 547.648193,691.888672 565.601135,691.663208 
	C568.431152,691.627686 570.668701,690.844849 570.606934,687.541199 
	C570.549500,684.473877 568.833435,682.576599 565.745300,682.226990 
	C563.591370,681.983093 561.440918,682.182617 559.352417,682.916382 
	C555.905396,684.127502 552.434753,685.271484 548.225647,686.649536 
M446.426300,223.964844 
	C444.511993,232.024933 442.539398,240.071762 440.704620,248.149902 
	C439.546417,253.249146 442.444214,258.103607 447.235901,259.434540 
	C451.702789,260.675262 455.093170,258.793854 456.863220,253.246216 
	C459.734406,244.247452 462.268158,235.137436 464.781586,226.029449 
	C466.433228,220.044495 464.265350,216.496201 458.313660,214.846634 
	C452.585510,213.259048 449.193909,215.684662 446.426300,223.964844 
M538.437012,235.984314 
	C533.604370,233.050415 528.840698,229.994202 523.919373,227.217422 
	C519.098755,224.497467 517.922119,225.001282 516.780823,230.247620 
	C514.875854,239.004105 513.046570,247.781876 511.463623,256.600647 
	C510.992584,259.224945 509.287415,261.883179 510.772705,264.740723 
	C511.210327,264.740723 511.638123,264.877197 511.841431,264.721161 
	C521.737427,257.125580 530.992615,248.772537 540.316406,240.504013 
	C542.661499,238.424377 540.403748,237.443268 538.437012,235.984314 
M221.190369,262.176270 
	C219.741119,255.152817 214.612656,251.314346 208.895508,247.993866 
	C207.752991,247.330307 206.537048,246.405350 205.216904,247.401474 
	C201.835754,249.952759 197.826569,251.836868 195.422974,256.256348 
	C206.024734,264.452759 215.545395,273.775818 227.619934,281.506226 
	C226.301453,274.182312 223.595871,268.631256 221.190369,262.176270 
M155.396149,425.297760 
	C146.902649,427.633392 138.833664,431.811127 130.023849,430.141571 
	C129.277893,432.409790 129.958847,433.255615 130.811996,433.715118 
	C139.290573,438.281433 148.243759,441.806732 157.134583,445.449524 
	C158.884521,446.166565 160.614151,445.503967 161.745026,443.554962 
	C165.571030,436.961151 163.115051,428.791199 155.396149,425.297760 
M235.240021,252.267792 
	C238.831696,255.414948 241.692245,259.458588 246.358505,261.557251 
	C244.335144,251.446884 241.877991,241.686417 239.182556,231.992203 
	C238.542328,229.689590 236.879135,227.491425 234.020279,228.748810 
	C229.368652,230.794708 224.889755,233.238998 221.114151,237.374985 
	C225.859146,242.390167 230.295471,247.079102 235.240021,252.267792 
M147.040878,628.168274 
	C144.351700,626.365479 141.219788,626.816345 138.331146,626.872986 
	C134.045242,626.957031 132.305145,630.535278 134.733139,634.165894 
	C138.894424,640.388550 143.320023,646.435669 147.694550,652.513367 
	C148.438126,653.546448 149.284531,654.742004 151.176468,654.191589 
	C152.714539,652.160461 149.501221,648.352234 153.152328,647.068054 
	C155.291229,646.971619 155.459946,649.701355 158.173264,649.405396 
	C156.401596,641.453369 150.124969,635.979126 147.040878,628.168274 
M230.365112,623.208252 
	C226.913513,621.733582 224.385361,617.899231 219.424881,618.803467 
	C221.770767,624.665405 215.147568,627.768677 215.831131,633.652832 
	C219.457062,632.430054 219.556259,636.462036 221.911026,637.759766 
	C228.157333,635.693787 232.707230,631.760254 236.573608,626.166016 
	C234.257782,625.093811 232.620407,624.335754 230.365112,623.208252 
M196.333221,632.487427 
	C197.355621,629.214294 196.601440,625.878174 196.615646,622.577698 
	C196.630844,619.045166 195.295959,616.305054 191.187943,616.275269 
	C187.423065,616.247925 184.777863,619.163391 185.372650,623.333069 
	C186.158295,628.840576 187.530426,634.264465 188.617264,639.562561 
	C192.695450,638.761841 195.397171,637.112183 196.333221,632.487427 
M161.402954,467.872009 
	C164.883804,468.514496 168.266418,470.145508 172.167374,468.639313 
	C165.341095,465.806763 160.436493,458.883087 153.006760,458.414825 
	C148.168564,458.109924 142.472687,458.280304 136.256683,461.440674 
	C145.182465,464.519623 152.941162,465.921204 161.402954,467.872009 
M243.665833,288.891907 
	C244.285141,291.132477 244.702011,293.456696 245.583023,295.589111 
	C246.396576,297.558289 247.770966,300.092194 250.311493,298.384766 
	C252.940323,296.618011 258.451965,295.214081 256.238556,291.239258 
	C253.411438,286.162354 248.488754,282.231659 243.018524,279.181396 
	C241.335846,282.788879 243.090240,285.386688 243.665833,288.891907 
M164.998917,636.436218 
	C163.874619,633.485168 162.858795,630.486694 161.593399,627.597412 
	C160.481049,625.057617 158.464279,623.291870 155.675339,624.743042 
	C152.942383,626.165100 154.477753,628.522766 155.421265,630.399475 
	C158.335266,636.195007 161.350815,641.939636 164.342621,647.695862 
	C164.800293,648.576355 165.255493,649.549866 167.031616,648.964844 
	C167.814194,644.952148 166.201523,641.107544 164.998917,636.436218 
M210.539139,624.625244 
	C210.558746,623.985474 210.578354,623.345642 210.597977,622.705872 
	C206.570633,622.855469 205.266907,619.310913 202.367996,615.539673 
	C202.162003,625.080627 201.682083,633.054749 203.488602,642.011841 
	C206.033859,635.692383 208.141281,630.459961 210.539139,624.625244 
M627.871948,522.818176 
	C627.911499,518.725281 626.033386,518.248291 622.176208,518.703308 
	C615.851135,519.449341 615.501831,525.976318 610.875793,528.304199 
	C613.469482,530.537048 615.958862,530.126526 618.297180,529.236450 
	C621.742615,527.924927 624.593201,525.576172 627.871948,522.818176 
M232.542664,676.782959 
	C231.709732,672.911377 229.130905,670.855774 225.392303,670.284119 
	C221.595627,669.703491 220.377655,672.763062 218.938736,675.323242 
	C218.111130,676.795776 218.113022,678.408264 219.948685,678.988953 
	C223.747574,680.190735 227.731995,680.020325 231.653275,679.900635 
	C232.884903,679.862976 232.704819,678.468811 232.542664,676.782959 
M651.145630,643.671692 
	C652.165283,642.118408 655.503418,640.605896 652.096619,638.694580 
	C647.162231,635.926147 639.694458,640.311768 638.869568,646.079895 
	C638.494507,648.703308 639.337158,649.937500 642.175903,649.168762 
	C645.471252,648.276489 648.228088,646.525635 651.145630,643.671692 
M495.544128,276.172302 
	C496.149353,272.313690 498.234741,268.629883 497.061615,264.471344 
	C493.765381,269.803192 491.052368,275.286835 488.351715,280.776611 
	C487.223969,283.069031 488.668030,284.197723 490.429077,285.036835 
	C492.734436,286.135315 493.414185,284.294006 493.933441,282.746887 
	C494.562195,280.873383 494.879486,278.895325 495.544128,276.172302 
M508.188354,286.662628 
	C506.509247,288.635162 504.153473,290.028534 502.934692,292.738007 
	C504.547729,294.036133 506.372864,296.772095 508.163879,294.618408 
	C511.708191,290.356384 514.874634,285.634857 516.286560,279.998444 
	C513.043945,281.354675 510.915375,283.825500 508.188354,286.662628 
M607.300659,478.054810 
	C605.404907,478.635132 603.488708,479.156799 601.618591,479.810486 
	C599.271973,480.630829 598.453247,481.950043 600.491943,484.321014 
	C605.948120,480.172089 612.320862,479.041351 619.758362,478.287872 
	C615.049011,474.946869 611.502625,474.356293 607.300659,478.054810 
M216.563858,465.165741 
	C214.047913,465.278320 211.320099,465.463043 210.583099,468.351471 
	C210.086670,470.297058 211.777588,472.135986 213.502747,472.311249 
	C218.027695,472.770905 219.279175,468.574341 221.899384,466.101074 
	C220.275162,464.775299 218.724777,465.483337 216.563858,465.165741 
M664.518860,534.895386 
	C665.700684,536.683472 666.525085,535.671265 666.810425,534.402222 
	C667.536377,531.173645 668.118347,527.905701 668.583069,524.628784 
	C668.775696,523.270386 668.398987,521.770752 666.681580,521.638184 
	C664.563904,521.474609 664.348389,523.169983 664.327209,524.705200 
	C664.283569,527.868958 664.358704,531.034424 664.518860,534.895386 
M95.611969,458.463043 
	C95.077660,455.809021 93.089958,453.608551 90.870880,454.870514 
	C88.099052,456.446777 89.243813,459.686798 90.029678,462.355286 
	C92.857307,462.520203 94.329773,461.096222 95.611969,458.463043 
M116.394211,385.333710 
	C115.380363,382.634430 113.769836,380.496704 111.055710,379.288422 
	C108.973564,382.975403 109.574409,384.912262 113.831184,388.839935 
	C115.395187,388.521576 115.650383,387.085785 116.394211,385.333710 
M113.529190,308.348755 
	C114.070396,310.631104 115.621628,311.994171 117.832779,311.492188 
	C119.883293,311.026672 120.908356,309.204926 120.989830,306.756073 
	C118.348953,305.983582 115.862923,305.225189 113.529190,308.348755 
M634.995789,616.403198 
	C633.176453,615.501831 631.446899,615.288086 630.363770,617.420898 
	C629.807617,618.516174 629.983887,619.724915 630.859924,620.647156 
	C631.852539,621.692017 633.189209,622.167419 634.453613,621.418457 
	C636.282410,620.335144 636.777771,618.722046 634.995789,616.403198 
M147.395920,494.353241 
	C148.381500,494.526337 149.398788,494.786499 149.849762,493.473053 
	C145.512802,489.395599 143.821335,489.022614 141.467316,491.767822 
	C142.893112,493.335449 144.922806,493.543793 147.395920,494.353241 
M115.324051,464.491455 
	C116.383713,460.877625 114.249947,459.285400 110.432381,457.362854 
	C112.079399,460.684784 110.301056,464.510498 115.324051,464.491455 
M140.378952,566.570740 
	C138.483353,567.093933 136.310150,566.508850 133.812683,568.060059 
	C137.675674,569.195557 140.702820,569.376526 143.868973,568.457458 
	C143.400421,566.637512 142.142471,566.755432 140.378952,566.570740 
M113.867012,433.678467 
	C113.127777,433.102753 111.978989,432.097382 111.619003,433.505127 
	C111.032997,435.796814 112.212738,437.380646 114.532738,437.950592 
	C115.776657,436.317596 114.941811,435.233429 113.867012,433.678467 
z"/>
</svg>